<svg width="16" height="16" viewBox="0 0 16 16" fill="none" xmlns="http://www.w3.org/2000/svg">
<g clip-path="url(#clip0_10434_1935)">
<path d="M8.23564 14.1522C7.34115 14.2305 6.4393 14.1129 5.60299 13.8089C4.76668 13.5049 4.01938 13.0229 3.4215 12.402C2.82362 11.7811 2.39192 11.0387 2.16132 10.2348C1.93072 9.43088 1.90768 8.58801 2.09406 7.77432L0.269511 7L0.223208 7.16964C-0.0556765 8.21831 -0.0734634 9.31195 0.171191 10.3679C0.415846 11.4239 0.916542 12.4146 1.63545 13.2651C2.35436 14.1157 3.27268 14.8038 4.32102 15.2776C5.36936 15.7514 6.52031 15.9984 7.6869 16C7.93024 16 8.17949 15.99 8.42283 15.9681C9.70348 15.8557 10.9333 15.4481 12 14.7824L10.6621 13.4144C9.92365 13.8264 9.09418 14.0786 8.23564 14.1522Z" fill="#020809"/>
<path d="M2.76468 5.85615L3.07386 6C3.5277 5.37376 4.12767 4.849 4.82985 4.46412C5.53202 4.07925 6.31864 3.844 7.13215 3.77558C8.38892 3.66631 9.64848 3.95595 10.7024 4.59658L12 3.2914C11.9401 3.25106 11.8782 3.21246 11.8164 3.17387C10.4454 2.32052 8.80503 1.91292 7.15465 2.01555C5.50427 2.11817 3.93809 2.72515 2.7038 3.7405L1.9104 3.37122L1 5.03778L2.76468 5.85615Z" fill="#020809"/>
<path d="M13.5154 6.18003C13.1404 5.71144 12.8791 5.06587 12.5747 2.99999H12.4876C12.2526 4.59393 12.0332 5.57255 11.5466 6.18003C11.1716 6.64861 10.6546 6.97457 9 7.35466V7.46332C10.2764 7.75679 11.0603 8.03084 11.5466 8.63832C11.9219 9.10691 12.1832 9.75248 12.4876 11.8184H12.5747C12.8097 10.2244 13.0291 9.24543 13.5154 8.63832C13.8907 8.16974 14.4077 7.84378 16.0623 7.46332V7.35466C14.7859 7.06156 14.002 6.78713 13.5154 6.18003Z" fill="#020809"/>
</g>
<defs>
<clipPath id="clip0_10434_1935">
<rect width="16" height="16" fill="white"/>
</clipPath>
</defs>
</svg>
