<svg width="230" height="64" viewBox="0 0 230 64" fill="none" xmlns="http://www.w3.org/2000/svg">
<path d="M92.2868 42.3381V40.3138H92.2201C91.1035 41.8579 89.3794 42.6482 87.0128 42.6482C85.8997 42.6505 84.7995 42.4219 83.7891 41.9784C82.7787 41.5349 81.8824 40.8871 81.163 40.0804C79.7572 38.4639 78.9919 36.4309 79.0001 34.3343C79.0001 30.2858 82.2445 26.0504 87.076 26.0504C87.822 26.0578 88.5628 26.1702 89.2741 26.3839C90.3832 26.7115 91.3623 27.3497 92.0831 28.2148H92.1498V18H97.0657V42.3447L92.2868 42.3381ZM92.2868 34.3343C92.3032 33.7967 92.2071 33.2613 92.004 32.7592C91.8009 32.2572 91.4948 31.7984 91.1035 31.4096C90.3057 30.6885 89.2466 30.2862 88.1452 30.2862C87.0439 30.2862 85.9847 30.6885 85.187 31.4096C84.4038 32.2012 83.9679 33.2465 83.9679 34.3327C83.9679 35.4188 84.4038 36.4641 85.187 37.2557C85.5638 37.6336 86.0203 37.9317 86.5268 38.1306C87.0332 38.3294 87.5781 38.4245 88.1259 38.4096C88.679 38.4214 89.2287 38.3251 89.741 38.1266C90.2532 37.9281 90.717 37.6316 91.1035 37.2557C91.4935 36.8688 91.799 36.4123 92.0021 35.9125C92.2052 35.4128 92.302 34.8798 92.2868 34.3443V34.3343Z" fill="white"/>
<path d="M106.035 35.6383C106.094 36.0894 106.248 36.5244 106.49 36.9166C106.731 37.3089 107.055 37.6501 107.44 37.9194C108.219 38.5024 109.187 38.8091 110.179 38.7865C110.935 38.773 111.672 38.5619 112.31 38.1762C112.954 37.8352 113.452 37.2898 113.715 36.6355L117.774 37.9694C117.254 39.4102 116.226 40.6358 114.863 41.4377C113.48 42.2735 111.87 42.7081 110.231 42.6883C108.619 42.7079 107.027 42.3482 105.597 41.6411C104.217 40.9667 103.059 39.9444 102.25 38.6864C101.421 37.3784 100.988 35.878 101 34.3511C100.989 32.8682 101.411 31.4116 102.219 30.1424C103.017 28.8763 104.145 27.8267 105.495 27.0943C106.843 26.3622 108.373 25.9846 109.926 26.0005C112.426 26.0005 114.42 26.7408 115.976 28.2182C117.531 29.6955 118.311 31.6198 118.311 33.9976C118.322 34.555 118.288 35.1125 118.209 35.665L106.035 35.6383ZM113.374 32.5235C113.29 31.8503 112.981 31.2203 112.493 30.726C111.952 30.1491 110.941 29.7622 109.789 29.7622C109.33 29.7459 108.872 29.8172 108.443 29.9719C108.014 30.1265 107.621 30.3614 107.289 30.6627C106.712 31.1554 106.31 31.8054 106.137 32.5235H113.374Z" fill="white"/>
<path d="M136.155 36.4313C136.155 35.3673 135.726 34.4887 134.989 33.8254C134.264 33.1734 133.259 32.7439 132.108 32.5076L132.108 32.5076L132.1 32.5062L129.06 31.93C129.059 31.9299 129.058 31.9297 129.058 31.9296C127.175 31.5576 125.758 30.8266 124.763 29.7671L124.763 29.767L124.753 29.7572C123.761 28.7571 123.221 27.4348 123.241 26.0714L123.241 26.0611L123.241 26.0508C123.195 24.3375 124.052 22.6907 125.465 21.466C126.877 20.2424 128.814 19.471 130.848 19.5008L130.85 19.5009C134.087 19.5331 136.165 20.6163 137.3 21.9876L137.307 21.9966L137.315 22.0052C137.958 22.7121 138.422 23.544 138.677 24.4377L135.982 25.2255C135.649 24.3647 135.087 23.6006 134.35 23.0094C133.411 22.2251 132.2 21.8093 130.958 21.8389C129.752 21.8051 128.572 22.1958 127.645 22.9415C127.201 23.2612 126.838 23.6756 126.586 24.1539C126.332 24.6369 126.198 25.171 126.198 25.7137L126.198 25.7186C126.206 26.5877 126.566 27.4154 127.194 28.0319C127.878 28.7033 128.762 29.1525 129.721 29.321L132.826 29.8902C132.827 29.8903 132.827 29.8904 132.828 29.8906C134.94 30.2945 136.518 31.0782 137.563 32.1377C138.6 33.1882 139.147 34.5421 139.148 36.167C139.13 36.9761 138.942 37.7745 138.595 38.5155C138.247 39.2582 137.745 39.929 137.117 40.4876L137.115 40.49C135.799 41.6776 133.661 42.5121 131.129 42.5121L131.128 42.5121C128.449 42.5186 126.213 41.6797 124.871 40.4639L124.865 40.4582L124.858 40.4527C123.642 39.4246 122.837 38.0427 122.561 36.5377L125.368 35.8163C125.668 36.9811 126.32 38.0383 127.245 38.8549L127.252 38.8607L127.258 38.8663C128.352 39.7653 129.757 40.2382 131.194 40.1974C132.428 40.2245 133.641 39.8695 134.648 39.1824C135.111 38.8786 135.492 38.4707 135.755 37.9919C136.02 37.5119 136.157 36.9761 136.155 36.4313ZM136.155 36.4313C136.155 36.4317 136.155 36.432 136.155 36.4324H135.655L136.155 36.4303C136.155 36.4307 136.155 36.431 136.155 36.4313Z" fill="white" stroke="white"/>
<path d="M147.789 34.8414H147.274L147.29 35.3562C147.33 36.7192 148.047 37.8984 149.056 38.7208C150.063 39.5414 151.391 40.0342 152.73 40.0167C154.858 40.0158 156.645 39.2111 157.481 37.4263L159.686 38.0779C159.372 38.79 158.921 39.4436 158.353 40.0043C157.658 40.6904 156.805 41.2192 155.859 41.5488C154.873 41.8913 153.83 42.0671 152.778 42.0681V42.068L152.77 42.0682C151.679 42.0881 150.596 41.8996 149.585 41.5143C148.573 41.1291 147.656 40.5554 146.885 39.8285C146.115 39.1017 145.508 38.2367 145.099 37.2857C144.69 36.3348 144.487 35.3165 144.501 34.291L144.501 34.291L144.501 34.2803C144.49 32.9241 144.839 31.5859 145.517 30.3888L145.517 30.3888L145.519 30.3862C146.173 29.2151 147.159 28.2361 148.37 27.5609L148.37 27.5609L148.375 27.5579C149.602 26.8543 151.012 26.4875 152.448 26.5003V26.5003H152.452C154.921 26.5003 156.77 27.2042 158.107 28.6212C159.462 30.0575 160.169 31.8903 160.169 34.2509C160.169 34.4496 160.159 34.6489 160.145 34.8414H147.789ZM149.32 29.5456H149.308L149.171 29.6538C148.246 30.3876 147.644 31.4342 147.497 32.5835L147.425 33.1468H147.993H156.817H157.332L157.317 32.6321C157.3 32.0568 157.157 31.4922 156.898 30.9743C156.639 30.4565 156.271 29.9975 155.817 29.6257L155.809 29.6186L155.8 29.6119C154.846 28.8979 153.664 28.5236 152.456 28.5483C151.322 28.5231 150.213 28.8753 149.32 29.5456Z" fill="white" stroke="white"/>
<path d="M168.425 34.8414H167.91L167.925 35.3554C167.963 36.719 168.68 37.8985 169.69 38.7209C170.697 39.5415 172.026 40.0342 173.365 40.0167C175.493 40.0158 177.28 39.2111 178.116 37.4263L180.321 38.0779C180.007 38.79 179.556 39.4436 178.988 40.0043C178.293 40.6904 177.44 41.2192 176.495 41.5488C175.508 41.8908 174.465 42.0667 173.413 42.0681V42.068L173.405 42.0682C172.314 42.0881 171.231 41.8996 170.22 41.5143C169.209 41.1291 168.291 40.5554 167.521 39.8285C166.751 39.1017 166.144 38.2367 165.734 37.2857C165.325 36.3348 165.122 35.3165 165.136 34.291L165.136 34.291L165.136 34.2803C165.125 32.9241 165.474 31.5859 166.152 30.3888L166.152 30.3888L166.154 30.3862C166.808 29.2151 167.794 28.2361 169.005 27.5609L169.005 27.5609L169.011 27.5579C170.237 26.8543 171.647 26.4875 173.083 26.5003V26.5003H173.088C175.557 26.5003 177.405 27.2042 178.742 28.6212C180.097 30.0575 180.804 31.8903 180.804 34.2509C180.804 34.4496 180.794 34.6489 180.78 34.8414H168.425ZM168.132 32.5835L168.06 33.1468H168.628H177.452H177.967L177.952 32.6323C177.935 32.0564 177.792 31.4912 177.532 30.973C177.273 30.4549 176.903 29.996 176.448 29.6249L176.44 29.6184L176.432 29.6123C175.479 28.8968 174.296 28.5222 173.088 28.5483C171.891 28.5201 170.722 28.9123 169.804 29.6555C168.88 30.3893 168.279 31.4351 168.132 32.5835Z" fill="white" stroke="white"/>
<path d="M51.3529 53.3339C48.1648 53.6203 44.9505 53.1903 41.9698 52.0786C38.9891 50.9668 36.3256 49.2046 34.1947 46.9343C32.0637 44.664 30.5251 41.9493 29.7032 39.0098C28.8813 36.0702 28.7992 32.9882 29.4635 30.013L22.9606 27.1816L22.7955 27.8019C21.8016 31.6364 21.7382 35.6354 22.6101 39.4965C23.4821 43.3577 25.2667 46.9802 27.829 50.0902C30.3912 53.2003 33.6642 55.7166 37.4007 57.449C41.1371 59.1814 45.2392 60.0846 49.3971 60.0904C50.2644 60.0904 51.1527 60.0537 52.02 59.9737C56.5844 59.5627 60.9677 58.0722 64.7695 55.6383L60.0012 50.636C57.3691 52.1424 54.4128 53.0647 51.3529 53.3339Z" fill="white"/>
<path d="M31.3631 22.6763L32.5042 23.2232C34.1794 20.8423 36.3938 18.8471 38.9856 17.3838C41.5773 15.9205 44.4807 15.0261 47.4834 14.766C52.1221 14.3505 56.7712 15.4517 60.6613 17.8874L65.4507 12.9251C65.2294 12.7717 65.0012 12.6249 64.773 12.4782C59.7127 9.23375 53.658 7.68407 47.5665 8.07425C41.4749 8.46442 35.6941 10.7722 31.1383 14.6326L28.2099 13.2286L24.8496 19.5649L31.3631 22.6763Z" fill="white"/>
<path d="M74.7381 17.706C73.265 16.2758 72.2385 14.3054 71.0427 7.99999H70.7005C69.7772 12.865 68.9155 15.8519 67.004 17.706C65.5309 19.1362 63.5 20.1311 57 21.2912V21.6228C62.0142 22.5185 65.0936 23.355 67.004 25.2092C68.4782 26.6394 69.5047 28.6097 70.7005 34.9152H71.0427C71.966 30.0502 72.8277 27.0621 74.7381 25.2092C76.2123 23.7789 78.2432 22.7841 84.7432 21.6228V21.2912C79.729 20.3966 76.6495 19.559 74.7381 17.706Z" fill="white"/>
<path d="M194.196 29.7251C193.85 29.6565 193.496 29.6241 193.143 29.6284C190.302 29.6284 188.75 31.2024 188.75 33.9637V42.0875H185V26.1301H188.683V28.6012C189.131 27.8135 189.795 27.1556 190.605 26.6976C191.415 26.2396 192.341 25.9985 193.283 26C193.589 26.0032 193.894 26.0254 194.196 26.0667V29.7251Z" fill="white"/>
</svg>
