<svg width="230" height="64" viewBox="0 0 230 64" fill="none" xmlns="http://www.w3.org/2000/svg">
<path d="M41.2494 30.1427C42.055 28.8586 43.2113 27.8054 44.5957 27.0946C46.022 26.3725 47.6143 25.9968 49.2306 26.0007C50.8366 25.981 52.4204 26.3579 53.8269 27.0946C55.2011 27.7868 56.348 28.8253 57.1415 30.096C57.9557 31.3671 58.3767 32.8302 58.3564 34.318C58.3753 35.8213 57.9547 37.3001 57.1415 38.59C56.3331 39.8654 55.1754 40.9085 53.7918 41.6081C52.3706 42.3394 50.7766 42.7147 49.1604 42.6986C47.5496 42.7187 45.9585 42.3601 44.529 41.6547C43.4994 41.1229 42.594 40.3984 41.8675 39.5249C41.141 38.6515 40.6084 37.6473 40.3019 36.5729C39.9953 35.4985 39.9213 34.3763 40.0841 33.274C40.247 32.1716 40.6434 31.1121 41.2494 30.1594V30.1427ZM45.0381 34.3513C45.0208 34.8885 45.1165 35.4237 45.3197 35.9253C45.5228 36.427 45.8294 36.885 46.2214 37.2727C47.0098 38.011 48.0725 38.4248 49.1797 38.4248C50.2869 38.4248 51.3495 38.011 52.1379 37.2727C52.5382 36.8907 52.8502 36.4335 53.054 35.9305C53.2577 35.4275 53.3488 34.8896 53.3213 34.3513C53.3481 33.814 53.2585 33.2771 53.058 32.774C52.8575 32.271 52.5503 31.8123 52.1555 31.4266C51.3671 30.6883 50.3044 30.2745 49.1972 30.2745C48.0901 30.2745 47.0274 30.6883 46.239 31.4266C45.8439 31.8136 45.5341 32.2717 45.3279 32.7739C45.1217 33.2762 45.0232 33.8124 45.0381 34.3513Z" fill="white"/>
<path d="M77.644 42.3381V40.3138H77.5772C76.4607 41.8579 74.7366 42.6482 72.37 42.6482C71.2569 42.6505 70.1567 42.4219 69.1463 41.9784C68.1358 41.5349 67.2396 40.8871 66.5202 40.0804C65.1144 38.4639 64.3491 36.4309 64.3572 34.3343C64.3572 30.2858 67.6017 26.0504 72.4332 26.0504C73.1792 26.0578 73.92 26.1702 74.6313 26.3839C75.7404 26.7115 76.7195 27.3497 77.4403 28.2148H77.507V18H82.4228V42.3447L77.644 42.3381ZM77.644 34.3343C77.6604 33.7967 77.5643 33.2613 77.3612 32.7592C77.158 32.2572 76.852 31.7984 76.4607 31.4096C75.6629 30.6885 74.6037 30.2862 73.5024 30.2862C72.4011 30.2862 71.3419 30.6885 70.5441 31.4096C69.761 32.2012 69.3251 33.2465 69.3251 34.3327C69.3251 35.4188 69.761 36.4641 70.5441 37.2557C70.9209 37.6336 71.3775 37.9317 71.8839 38.1306C72.3904 38.3294 72.9353 38.4245 73.4831 38.4096C74.0362 38.4214 74.5859 38.3251 75.0982 38.1266C75.6104 37.9281 76.0742 37.6316 76.4607 37.2557C76.8507 36.8688 77.1562 36.4123 77.3593 35.9126C77.5624 35.4128 77.6591 34.8798 77.644 34.3443V34.3343Z" fill="white"/>
<path d="M93.4583 35.6383C93.5164 36.0894 93.671 36.5244 93.9125 36.9166C94.154 37.3089 94.4774 37.6501 94.8628 37.9194C95.6416 38.5024 96.6102 38.8091 97.6016 38.7865C98.3576 38.773 99.0951 38.5619 99.733 38.1762C100.377 37.8352 100.874 37.2898 101.137 36.6355L105.197 37.9694C104.677 39.4102 103.649 40.6358 102.286 41.4377C100.903 42.2735 99.2933 42.7081 97.6543 42.6883C96.042 42.7079 94.4497 42.3482 93.0194 41.6411C91.6395 40.9667 90.4818 39.9444 89.6731 38.6864C88.8435 37.3784 88.4109 35.878 88.4231 34.3511C88.4123 32.8682 88.834 31.4116 89.6415 30.1424C90.4402 28.8763 91.5683 27.8267 92.9175 27.0943C94.266 26.3622 95.7956 25.9846 97.3488 26.0005C99.8488 26.0005 101.843 26.7408 103.399 28.2182C104.954 29.6955 105.734 31.6198 105.734 33.9976C105.745 34.555 105.711 35.1125 105.632 35.665L93.4583 35.6383ZM100.797 32.5235C100.713 31.8503 100.404 31.2203 99.9156 30.726C99.3748 30.1491 98.3636 29.7622 97.2119 29.7622C96.7529 29.7459 96.2952 29.8172 95.8658 29.9719C95.4364 30.1265 95.044 30.3614 94.7118 30.6627C94.1352 31.1554 93.733 31.8054 93.5601 32.5235H100.797Z" fill="white"/>
<path d="M114.535 40.8345C113.111 39.6299 112.207 37.9663 112 36.1656L115.75 35.2018C115.952 36.459 116.595 37.6144 117.576 38.48C118.577 39.3032 119.869 39.7378 121.193 39.6973C122.33 39.7248 123.446 39.398 124.37 38.7668C124.768 38.5064 125.093 38.1576 125.317 37.7508C125.541 37.344 125.657 36.8914 125.655 36.4324C125.655 34.6015 124.202 33.4477 122.007 32.9974L118.963 32.4205C117.004 32.0337 115.482 31.2633 114.398 30.1094C113.314 29.0166 112.719 27.5658 112.741 26.0642C112.639 22.2758 116.53 18.9375 120.855 19.0009C124.202 19.0342 126.435 20.1581 127.685 21.6688C128.493 22.5571 129.041 23.6311 129.276 24.7836L125.659 25.8408C125.396 24.8861 124.828 24.0323 124.033 23.3963C123.186 22.6869 122.087 22.3091 120.957 22.3391C119.858 22.3052 118.785 22.6619 117.948 23.3396C117.56 23.6162 117.245 23.9748 117.028 24.3869C116.811 24.7989 116.698 25.2533 116.698 25.714C116.705 26.4466 117.008 27.1487 117.544 27.675C118.154 28.2742 118.946 28.6776 119.809 28.8288L122.92 29.3991C127.281 30.2328 129.648 32.674 129.648 36.1723C129.629 37.0536 129.425 37.9225 129.048 38.7277C128.67 39.533 128.127 40.2584 127.45 40.8611C126.028 42.1451 123.763 43.0121 121.129 43.0121C118.355 43.0188 115.989 42.1517 114.535 40.8345Z" fill="white"/>
<path d="M139.437 35.3414C139.507 37.7192 141.941 39.55 144.374 39.5167C146.537 39.5167 148.194 38.6496 148.837 36.8187L151.997 37.7525C151.664 38.729 151.101 39.6207 150.352 40.3602C149.602 41.0997 148.686 41.6677 147.671 42.0212C146.632 42.382 145.533 42.5671 144.427 42.5681C143.273 42.5892 142.126 42.3897 141.054 41.9816C139.983 41.5734 139.009 40.9649 138.19 40.1922C137.371 39.4194 136.724 38.4982 136.288 37.4833C135.851 36.4684 135.634 35.3805 135.648 34.2842C135.637 32.8392 136.009 31.4148 136.73 30.1423C137.431 28.888 138.485 27.8432 139.774 27.1242C141.079 26.3758 142.576 25.9867 144.1 26.0003C146.67 26.0003 148.665 26.7374 150.118 28.2781C151.572 29.8188 152.317 31.7797 152.317 34.2509C152.317 34.6377 152.281 35.0212 152.25 35.3414H139.437ZM141.13 30.0456C140.303 30.7011 139.77 31.6314 139.641 32.6468H148.465C148.45 32.1449 148.325 31.6514 148.098 31.1978C147.872 30.7442 147.548 30.3404 147.148 30.0122C146.282 29.3643 145.206 29.0235 144.104 29.0484C143.02 29.0219 141.964 29.377 141.14 30.0456H141.13Z" fill="white"/>
<path d="M162.106 35.3414C162.173 37.7192 164.609 39.55 167.043 39.5167C169.206 39.5167 170.863 38.6496 171.506 36.8187L174.666 37.7525C174.333 38.729 173.77 39.6207 173.02 40.3602C172.271 41.0997 171.354 41.6677 170.34 42.0212C169.3 42.3815 168.202 42.5666 167.095 42.5681C165.941 42.5892 164.794 42.3897 163.723 41.9816C162.652 41.5734 161.678 40.9649 160.859 40.1922C160.04 39.4194 159.393 38.4982 158.956 37.4833C158.52 36.4684 158.302 35.3805 158.317 34.2842C158.306 32.8392 158.678 31.4148 159.399 30.1423C160.1 28.888 161.154 27.8432 162.443 27.1242C163.747 26.3758 165.245 25.9867 166.769 26.0003C169.339 26.0003 171.333 26.7374 172.787 28.2781C174.241 29.8188 174.985 31.7797 174.985 34.2509C174.985 34.6377 174.95 35.0212 174.919 35.3414H162.106ZM163.798 30.0456C162.971 30.7011 162.439 31.6314 162.309 32.6468H171.133C171.119 32.1445 170.994 31.6507 170.766 31.197C170.539 30.7433 170.214 30.3397 169.813 30.0122C168.948 29.3631 167.871 29.0221 166.769 29.0484C165.683 29.0202 164.624 29.3755 163.798 30.0456Z" fill="white"/>
<path d="M190.181 29.7251C189.835 29.6565 189.482 29.6241 189.128 29.6284C186.287 29.6284 184.735 31.2024 184.735 33.9637V42.0875H180.985V26.1301H184.668V28.6012C185.116 27.8135 185.78 27.1556 186.59 26.6976C187.4 26.2396 188.326 25.9985 189.268 26C189.574 26.0032 189.879 26.0254 190.181 26.0667V29.7251Z" fill="white"/>
<path d="M51.3529 53.3339C48.1648 53.6203 44.9505 53.1903 41.9698 52.0786C38.9891 50.9668 36.3256 49.2046 34.1947 46.9343C32.0637 44.664 30.5251 41.9493 29.7032 39.0098C28.8813 36.0702 28.7992 32.9882 29.4635 30.013L22.9606 27.1816L22.7955 27.8019C21.8016 31.6364 21.7382 35.6354 22.6101 39.4965C23.4821 43.3577 25.2667 46.9802 27.829 50.0902C30.3912 53.2003 33.6642 55.7166 37.4007 57.449C41.1371 59.1814 45.2392 60.0846 49.3971 60.0904C50.2644 60.0904 51.1527 60.0537 52.02 59.9737C56.5844 59.5627 60.9677 58.0722 64.7695 55.6383L60.0012 50.636C57.3691 52.1424 54.4128 53.0647 51.3529 53.3339Z" fill="white"/>
<path d="M31.3631 22.6763L32.5042 23.2232C34.1794 20.8423 36.3938 18.8471 38.9856 17.3838C41.5773 15.9205 44.4807 15.0261 47.4834 14.766C52.1221 14.3505 56.7712 15.4517 60.6613 17.8874L65.4507 12.9251C65.2294 12.7717 65.0012 12.6249 64.773 12.4782C59.7127 9.23375 53.658 7.68407 47.5665 8.07425C41.4749 8.46442 35.6941 10.7722 31.1383 14.6326L28.2099 13.2286L24.8496 19.5649L31.3631 22.6763Z" fill="white"/>
<path d="M202.787 17.2122C201.725 16.1494 200.985 14.6853 200.123 9.99988H199.877C199.211 13.6149 198.59 15.8344 197.212 17.2122C196.15 18.2749 194.686 19.0142 190 19.8762V20.1227C193.615 20.7883 195.835 21.4098 197.212 22.7876C198.275 23.8503 199.015 25.3145 199.877 29.9999H200.123C200.789 26.3848 201.41 24.1645 202.787 22.7876C203.85 21.7248 205.314 20.9856 210 20.1227V19.8762C206.385 19.2115 204.165 18.5891 202.787 17.2122Z" fill="white"/>
</svg>
