<svg width="140" height="36" viewBox="0 0 140 36" fill="none" xmlns="http://www.w3.org/2000/svg">
<path d="M103.713 0.675606C108.179 0.650061 112.645 0.630769 117.112 0.618934C119.185 0.613292 121.259 0.6056 123.333 0.59309C125.14 0.582192 126.947 0.575132 128.755 0.572692C129.712 0.571265 130.669 0.567909 131.626 0.559958C132.527 0.552535 133.427 0.550243 134.328 0.551888C134.659 0.551587 134.989 0.549411 135.32 0.545218C135.772 0.539771 136.223 0.541085 136.674 0.544071C136.927 0.543063 137.18 0.542054 137.44 0.541016C138.505 0.754823 138.967 1.45531 139.58 2.31274C140.425 4.09762 139.762 6.72486 139.588 8.66341C139.51 9.53778 139.436 10.4125 139.363 11.2872C139.348 11.464 139.333 11.6407 139.317 11.8229C139.182 13.4428 139.074 15.0636 138.976 16.6862C138.787 19.7867 138.566 22.8842 138.338 25.982C138.325 26.1634 138.311 26.3448 138.298 26.5317C138.272 26.8876 138.245 27.2434 138.219 27.5993C138.158 28.4227 138.101 29.246 138.052 30.0702C138.043 30.2195 138.034 30.3687 138.025 30.5224C138.001 30.9207 137.979 31.319 137.957 31.7174C137.838 33.0017 137.614 34.0004 136.691 34.9118C135.813 35.4581 135.175 35.5009 134.162 35.4997C133.999 35.4995 133.837 35.4993 133.669 35.4992C131.964 35.4813 130.279 35.3144 128.583 35.1451C127.235 35.0116 125.886 34.9127 124.535 34.8161C122.42 34.6619 120.307 34.4876 118.194 34.2965C117.898 34.2698 117.602 34.2431 117.306 34.2163C117.151 34.2024 116.997 34.1884 116.837 34.174C116.676 34.1594 116.515 34.1449 116.348 34.1299C116.181 34.1148 116.014 34.0996 115.841 34.0841C113.373 33.8616 110.905 33.6438 108.436 33.4272C107.88 33.3783 107.325 33.3293 106.77 33.2801C104.017 33.0361 101.267 32.7939 98.5063 32.6657C97.872 32.6148 97.872 32.6148 97.4393 32.396C97.3861 31.1136 97.584 29.9677 97.8585 28.7181C97.8979 28.5304 97.9374 28.3428 97.9781 28.1494C98.2725 26.7733 98.2725 26.7733 98.521 26.2707C98.9773 26.2032 98.9773 26.2032 99.5486 26.175C100.455 26.0954 101.063 26.0228 101.766 25.3957C102.666 24.191 102.831 23.1689 102.631 21.6767C102.272 20.6431 101.804 20.0903 100.901 19.4891C100.614 19.4079 100.326 19.3334 100.035 19.2703C100.425 15.9341 101.183 12.6671 101.886 9.38761C101.999 8.8581 102.113 8.32857 102.226 7.79903C102.281 7.54114 102.336 7.28325 102.393 7.01755C102.764 5.26901 103.094 3.51887 103.379 1.75403C103.497 1.11313 103.497 1.11313 103.713 0.675606ZM108.689 12.9262C108.425 13.3756 108.425 13.3756 108.256 13.8013C108.113 13.8013 107.971 13.8013 107.823 13.8013C106.197 15.8175 106.11 18.2992 106.259 20.7966C106.362 21.7027 106.696 22.4464 107.174 23.208C107.246 23.3524 107.317 23.4968 107.391 23.6456C107.534 23.6456 107.676 23.6456 107.823 23.6456C107.874 23.7758 107.925 23.9061 107.977 24.0404C108.619 25.1455 110.107 25.7946 111.298 26.134C113.533 26.4926 115.599 26.1774 117.558 24.9581C117.63 24.7416 117.701 24.525 117.775 24.3018C117.495 23.8632 117.495 23.8632 117.085 23.4405C116.946 23.2873 116.806 23.1342 116.663 22.9765C116.246 22.5366 115.83 22.0985 115.395 21.6767C114.692 21.9147 114.692 21.9147 114.097 22.333C113.04 22.4716 112.201 22.4927 111.271 21.9365C110.492 20.6409 110.516 19.2127 110.812 17.7527C110.968 17.1168 111.175 16.5567 111.501 15.9889C112.399 15.4441 113.099 15.5357 114.097 15.7701C114.692 16.0983 114.692 16.0983 115.179 16.4264C115.393 16.4986 115.607 16.5708 115.828 16.6452C116.308 16.3573 116.726 16.0703 117.166 15.7291C117.348 15.5978 117.348 15.5978 117.533 15.4638C117.927 15.1742 117.927 15.1742 118.424 14.6763C118.506 13.833 118.506 13.833 118.126 13.3638C116.535 12.1378 114.83 11.9106 112.88 11.9418C112.667 11.9384 112.454 11.9351 112.235 11.9316C110.923 11.9386 109.741 12.067 108.689 12.9262ZM120.87 15.6155C119.616 17.5874 119.157 19.7171 119.621 22.0365C120.155 24.0049 121.256 25.7371 123.029 26.7809C124.563 27.4775 126.088 27.6753 127.708 27.1663C128.23 26.9581 128.737 26.7371 129.241 26.4895C129.169 26.7782 129.098 27.067 129.024 27.3645C129.633 27.4069 130.241 27.4477 130.85 27.4876C131.023 27.4998 131.197 27.5121 131.376 27.5247C131.817 27.553 132.26 27.5691 132.702 27.5833C133.171 27.1092 133.068 26.0823 133.129 25.4239C133.148 25.2247 133.166 25.0256 133.186 24.8204C133.226 24.3954 133.265 23.9704 133.304 23.5453C133.363 22.909 133.425 22.273 133.487 21.637C133.727 19.0897 133.838 16.5785 133.784 14.0201C132.912 13.8653 132.1 13.7767 131.215 13.7876C131.005 13.7896 130.796 13.7916 130.581 13.7936C130.346 13.7974 130.346 13.7974 130.106 13.8013C130.106 14.0179 130.106 14.2344 130.106 14.4576C129.963 14.5298 129.82 14.602 129.673 14.6763C129.566 14.3515 129.566 14.3515 129.457 14.0201C126.372 12.2221 123.045 12.6339 120.87 15.6155Z" fill="#1587A3"/>
<path d="M13.0685 6.36358C13.2826 6.50796 13.4968 6.65235 13.7175 6.8011C13.8603 6.44015 14.003 6.07919 14.1502 5.7073C15.9349 5.7073 17.7197 5.7073 19.5585 5.7073C19.5634 8.21354 19.5674 10.7198 19.5697 13.226C19.5709 14.3896 19.5724 15.5533 19.5748 16.7169C19.5772 17.8389 19.5785 18.9608 19.5791 20.0828C19.5795 20.5118 19.5802 20.9409 19.5814 21.37C19.583 21.9687 19.5832 22.5675 19.5831 23.1663C19.5839 23.3455 19.5846 23.5247 19.5854 23.7094C19.5832 24.9333 19.5832 24.9334 19.3422 25.1771C18.957 25.1962 18.571 25.2005 18.1853 25.1984C17.9518 25.1977 17.7182 25.197 17.4776 25.1963C17.2317 25.1945 16.9859 25.1926 16.7327 25.1907C16.486 25.1897 16.2393 25.1888 15.9852 25.1877C15.3735 25.1852 14.7618 25.1815 14.1502 25.1771C14.0788 24.7439 14.0074 24.3108 13.9338 23.8645C13.7565 23.9567 13.5791 24.0489 13.3964 24.1439C13.1632 24.2638 12.9301 24.3836 12.6899 24.5071C12.459 24.6264 12.2281 24.7457 11.9902 24.8686C10.1693 25.7296 7.92466 25.6499 6.03759 25.0002C4.96929 24.4854 3.99772 23.7869 3.11707 22.9894C3.11707 22.8451 3.11707 22.7007 3.11707 22.5519C2.98768 22.4992 2.85828 22.4465 2.72497 22.3921C1.29232 21.5514 0.661039 19.3854 0.238805 17.8605C-0.366279 14.7324 0.175095 11.7192 1.90188 9.03486C4.39788 5.58418 9.27462 4.14122 13.0685 6.36358ZM7.44377 11.1763C7.15299 11.6177 7.15299 11.6177 7.0111 12.0514C6.79693 12.1236 6.58276 12.1958 6.3621 12.2701C5.39897 14.0125 5.38608 15.5715 5.86182 17.452C6.51503 18.6158 7.32676 19.5518 8.52544 20.1455C9.82897 20.3481 11.1558 20.3676 12.3248 19.6944C13.5361 18.7789 14.0926 17.4744 14.3665 15.9891C14.3665 14.6326 14.1519 13.4596 13.5011 12.2701C13.287 12.1979 13.0728 12.1258 12.8521 12.0514C12.8031 11.916 12.754 11.7807 12.7034 11.6412C12.2408 10.8837 11.516 10.7303 10.6888 10.52C9.50952 10.3923 8.47827 10.5891 7.44377 11.1763Z" fill="#1587A3"/>
<path d="M34.1412 5.68213C34.4794 5.68385 34.4794 5.68385 34.8244 5.6856C35.0677 5.68631 35.311 5.68701 35.5617 5.68774C35.8178 5.68957 36.074 5.6914 36.3379 5.69329C36.5948 5.69428 36.8518 5.69527 37.1166 5.69628C37.7539 5.69887 38.3912 5.70248 39.0285 5.70696C39.2876 6.23096 39.2745 6.56184 39.279 7.14691C39.2812 7.35513 39.2834 7.56335 39.2857 7.77788C39.2873 8.00392 39.2889 8.22996 39.2905 8.46285C39.2966 8.94096 39.3028 9.41907 39.3091 9.89719C39.318 10.6513 39.326 11.4054 39.3317 12.1595C39.3377 12.8871 39.3476 13.6145 39.3581 14.3421C39.3588 14.565 39.3595 14.7879 39.3602 15.0176C39.383 16.3705 39.5194 17.601 40.1102 18.8327C40.8969 19.56 41.8727 19.7339 42.9226 19.7077C43.9556 19.4465 44.325 19.2267 44.9053 18.3174C45.4654 17.1103 45.4326 15.9064 45.4341 14.5941C45.4376 14.3393 45.4412 14.0844 45.4449 13.8218C45.4554 13.0128 45.46 12.2038 45.4645 11.3948C45.4706 10.8442 45.4771 10.2935 45.4839 9.74294C45.4999 8.39763 45.5111 7.05235 45.5186 5.70696C46.4515 5.70065 47.3845 5.69674 48.3174 5.69329C48.5839 5.69146 48.8503 5.68963 49.1249 5.68774C49.3779 5.68703 49.631 5.68633 49.8918 5.6856C50.2435 5.68388 50.2435 5.68388 50.6024 5.68213C51.1433 5.70696 51.1433 5.70696 51.3596 5.92573C51.3843 6.59279 51.3951 7.25468 51.396 7.92192C51.397 8.2287 51.397 8.2287 51.3981 8.54168C51.3992 8.97792 51.3997 9.41416 51.3997 9.8504C51.4002 10.5048 51.4041 11.1591 51.4082 11.8135C51.4322 19.929 51.4322 19.929 48.7636 22.9891C46.9142 24.8119 44.8263 25.4572 42.2736 25.4775C39.6667 25.4414 37.7104 24.8257 35.7835 22.9891C32.9998 19.5013 33.3664 15.3185 33.3756 11.0779C33.3768 10.4281 33.3756 9.77834 33.3742 9.12853C33.3744 8.7155 33.3747 8.30248 33.3751 7.88945C33.3747 7.69511 33.3742 7.50078 33.3738 7.30055C33.3798 5.71842 33.3798 5.71842 34.1412 5.68213Z" fill="#1587A3"/>
<path d="M74.8121 5.68213C75.1503 5.68385 75.1503 5.68385 75.4953 5.6856C75.7386 5.68631 75.9819 5.68701 76.2326 5.68774C76.4887 5.68957 76.7449 5.6914 77.0088 5.69329C77.2657 5.69428 77.5227 5.69527 77.7875 5.69628C78.4248 5.69887 79.0621 5.70248 79.6994 5.70696C79.967 6.24805 79.9456 6.61234 79.9499 7.21757C79.9521 7.44105 79.9543 7.66453 79.9566 7.89478C79.9582 8.13723 79.9598 8.37968 79.9614 8.62948C79.9675 9.14049 79.9737 9.65151 79.98 10.1625C79.9889 10.97 79.9969 11.7774 80.0026 12.5849C80.0086 13.363 80.0185 14.1409 80.029 14.9189C80.0297 15.1596 80.0304 15.4002 80.0311 15.6482C80.0504 16.8649 80.082 17.7925 80.7811 18.8327C81.5912 19.4926 82.3443 19.6723 83.3771 19.7077C84.3001 19.5152 84.9337 19.2729 85.527 18.5182C85.8872 17.6396 86.0016 16.8895 86.0176 15.939C86.0219 15.7113 86.0262 15.4836 86.0306 15.249C86.0361 14.8826 86.0361 14.8826 86.0416 14.5087C86.0461 14.2574 86.0506 14.0062 86.0552 13.7473C86.0694 12.9449 86.0821 12.1425 86.0948 11.3401C86.1042 10.796 86.1136 10.252 86.1231 9.70791C86.1465 8.37427 86.1679 7.04063 86.1895 5.70696C88.0456 5.70696 89.9018 5.70696 91.8142 5.70696C92.154 6.39413 92.0612 7.12838 92.0593 7.88261C92.0595 8.05821 92.0597 8.2338 92.0599 8.41472C92.06 8.78878 92.0596 9.16283 92.0587 9.53689C92.0576 10.0967 92.0587 10.6564 92.0601 11.2162C92.0643 20.0946 92.0643 20.0946 89.4201 23.0515C89.0018 23.4266 89.0018 23.4266 88.5692 23.4266C88.5692 23.571 88.5692 23.7154 88.5692 23.8642C86.0977 25.4747 83.3002 25.7633 80.4431 25.2596C77.9367 24.5871 76.3069 23.1767 75.0127 20.928C73.5938 18.159 74.0403 14.3913 74.0465 11.345C74.0477 10.6616 74.0465 9.97818 74.0451 9.29474C74.0453 8.86077 74.0456 8.42681 74.046 7.99285C74.0456 7.78826 74.0451 7.58366 74.0447 7.37287C74.0453 7.18568 74.046 6.99849 74.0467 6.80563C74.0469 6.64047 74.0471 6.47531 74.0473 6.30515C74.0912 5.69786 74.2115 5.71076 74.8121 5.68213Z" fill="#1587A3"/>
<path d="M52.8741 5.70752C54.7303 5.70752 56.5864 5.70752 58.4988 5.70752C59.4724 7.67638 59.4724 7.67638 59.7336 8.45881C59.7928 8.63401 59.8519 8.80921 59.9129 8.98972C59.9733 9.17276 60.0337 9.3558 60.096 9.54439C60.161 9.73788 60.2259 9.93137 60.2929 10.1307C60.4983 10.7433 60.7019 11.3564 60.9056 11.9696C61.0438 12.3826 61.1821 12.7957 61.3205 13.2086C61.8258 14.7177 62.3282 16.2277 62.8255 17.7394C63.476 16.1682 64.0153 14.5797 64.5157 12.954C65.2745 10.5196 66.0903 8.11246 66.9359 5.70752C68.7921 5.70752 70.6482 5.70752 72.5606 5.70752C72.4186 6.71288 72.316 7.43476 71.9978 8.3506C71.8934 8.65336 71.8934 8.65336 71.7869 8.96224C71.712 9.17409 71.6372 9.38594 71.5601 9.60421C71.4438 9.93763 71.4438 9.93763 71.3252 10.2778C70.7387 11.9471 70.1142 13.5991 69.4711 15.2467C68.6785 17.283 67.9359 19.3406 67.2241 21.4071C67.1664 21.5744 67.1087 21.7418 67.0492 21.9142C66.9414 22.2282 66.8344 22.5426 66.7284 22.8573C66.4256 23.7417 66.0694 24.5683 65.6379 25.396C64.678 25.4214 63.7181 25.437 62.7579 25.4507C62.4848 25.4581 62.2116 25.4654 61.9302 25.473C61.538 25.4772 61.538 25.4772 61.138 25.4815C60.776 25.4884 60.776 25.4884 60.4067 25.4954C59.7968 25.396 59.7969 25.396 59.4103 25.0111C59.1587 24.5413 58.9651 24.1005 58.7988 23.5938C58.7095 23.3273 58.7095 23.3273 58.6184 23.0553C58.5566 22.8667 58.4949 22.6781 58.4312 22.4838C57.9759 21.1287 57.5063 19.789 56.971 18.464C56.4794 17.2435 56.0281 16.0139 55.6036 14.7683C55.2255 13.6658 54.8264 12.5724 54.4189 11.4808C54.2526 11.0324 54.0864 10.584 53.9203 10.1356C53.8092 9.83709 53.6972 9.53887 53.5843 9.24097C53.4246 8.81906 53.2679 8.39613 53.1116 7.9729C53.019 7.7262 52.9265 7.47951 52.8311 7.22534C52.6578 6.58257 52.6578 6.58257 52.8741 5.70752Z" fill="#1587A3"/>
<path d="M27.5632 0.675673C27.5632 2.33607 27.5632 3.99647 27.5632 5.70719C28.9196 5.70719 30.276 5.70719 31.6736 5.70719C31.6736 7.2232 31.6736 8.73922 31.6736 10.3012C30.3171 10.3012 28.9607 10.3012 27.5632 10.3012C27.6346 13.3332 27.706 16.3652 27.7795 19.4892C28.6811 19.8538 29.1772 19.9901 30.1051 20.0497C31.2192 20.1235 31.2192 20.1235 31.4572 20.3642C31.5115 21.1238 31.4973 21.8862 31.4978 22.6475C31.5004 22.862 31.5031 23.0764 31.5058 23.2974C31.5062 23.5023 31.5067 23.7071 31.5071 23.9182C31.508 24.107 31.5089 24.2958 31.5098 24.4903C31.4572 24.9582 31.4572 24.9582 31.0246 25.3957C28.6335 25.7646 26.0285 25.6218 24.0452 24.1601C22.7259 23.0631 22.1282 22.0475 21.7222 20.3642C21.6664 19.7497 21.6672 19.1404 21.673 18.5236C21.673 18.3463 21.6729 18.1689 21.6729 17.9862C21.6732 17.4051 21.6765 16.8239 21.6799 16.2428C21.6807 15.8379 21.6813 15.433 21.6818 15.0281C21.6834 13.9661 21.6877 12.9041 21.6925 11.8421C21.6969 10.7569 21.6989 9.67172 21.701 8.58655C21.7057 6.46002 21.713 4.33351 21.7222 2.207C22.0293 2.06664 22.3368 1.92684 22.6443 1.78726C22.8154 1.70935 22.9866 1.63144 23.163 1.55116C23.8502 1.25358 24.5324 1.03547 25.2511 0.826071C25.5046 0.750214 25.7581 0.674357 26.0193 0.596201C26.6979 0.456911 26.6979 0.456911 27.5632 0.675673Z" fill="#1587A3"/>
<path d="M128.226 16.8916C128.937 17.3933 129.402 17.78 129.673 18.6143C129.843 19.9593 129.982 21.4089 129.226 22.593C128.609 23.2857 127.971 23.6194 127.077 23.8646C126.015 23.8932 125.088 23.684 124.264 22.9896C123.481 21.9402 123.257 21.1302 123.316 19.8167C123.5 18.6067 123.965 17.8017 124.846 16.9736C126.024 16.4343 127.011 16.4744 128.226 16.8916Z" fill="#1587A3"/>
</svg>
