<svg width="140" height="35" viewBox="0 0 140 35" fill="none" xmlns="http://www.w3.org/2000/svg">
<path d="M39.9354 18.8999C40.0213 19.2994 40.0213 19.2994 39.9354 19.8129C37.5486 22.1843 32.842 22.662 29.4649 22.8564C27.8817 22.9167 26.2969 22.9269 24.7124 22.942C21.1617 22.9808 21.1617 22.9808 17.6125 23.0776C17.3707 23.0858 17.3707 23.0858 17.1241 23.0942C12.5441 23.2705 8.26127 24.2861 3.95638 25.6332C3.53646 25.7504 3.12084 25.8303 2.68793 25.8999C2.12069 25.0097 1.70145 24.1052 1.35766 23.1322C1.32155 23.0311 1.28544 22.93 1.24824 22.8258C1.02576 22.1759 0.890212 21.5499 0.799805 20.8782C8.81319 19.429 16.6607 19.1441 24.8063 19.8558C27.0387 20.0508 29.2486 20.1811 31.4925 20.1839C31.6147 20.1847 31.7368 20.1856 31.8627 20.1865C34.1737 20.1983 36.4652 19.9523 38.6481 19.2518C39.7628 18.8999 39.7628 18.8999 39.9354 18.8999Z" fill="#1587A3"/>
<path d="M0.565236 14.0107C9.48753 13.9068 17.6511 14.5557 26.3146 16.1172C28.4843 16.5079 30.6543 16.8748 32.8516 17.1713C33.2018 17.2187 33.5512 17.2694 33.9005 17.3208C35.9087 17.5833 37.9685 17.5062 40 17.483C40 17.7377 40 17.9923 40 18.2547C36.9509 19.0296 33.9754 18.9857 30.8007 18.745C30.6884 18.7368 30.5762 18.7285 30.4605 18.7201C28.6952 18.5902 26.94 18.4199 25.1843 18.2324C17.7719 17.442 10.4367 17.1523 2.98667 17.8689C2.66402 17.897 2.3413 17.9246 2.0185 17.9517C1.36063 18.0071 0.703346 18.0652 0.0463575 18.1261C0.0319446 17.8018 0.0218734 17.4779 0.0139276 17.1535C0.00958 17.0654 0.00523236 16.9773 0.000752982 16.8865C-0.0170133 15.9045 0.282772 14.9642 0.565236 14.0107Z" fill="#1587A3"/>
<path d="M5.14693 6.2998C9.67211 6.75445 14.0123 7.52129 18.367 8.6913C18.5269 8.73405 18.6868 8.7768 18.8515 8.82084C22.7186 9.86754 26.4444 11.2473 30.1562 12.647C31.9285 13.3143 33.7091 13.9524 35.5145 14.5486C35.71 14.6133 35.9056 14.6781 36.107 14.7448C37.3903 15.1625 38.6864 15.527 39.9999 15.8658C39.9999 16.1617 39.9999 16.4577 39.9999 16.7626C36.3468 17.0373 32.6488 15.7307 29.2032 14.8328C21.085 12.7181 13.0847 11.0962 4.57821 10.8492C4.26167 10.8396 4.26167 10.8396 3.93874 10.8297C3.4258 10.8141 2.91286 10.7988 2.3999 10.7839C2.74899 9.10104 3.95446 7.62107 5.14693 6.2998Z" fill="#1587A3"/>
<path d="M39.0287 21C39.0851 21.0975 39.1416 21.1951 39.1998 21.2955C38.7121 22.3208 37.9808 23.1207 37.1461 23.9554C37.0567 24.0468 36.9674 24.1383 36.8753 24.2325C33.0596 27.8357 26.4566 28.4019 21.1976 29.0535C17.4357 29.5198 13.9207 30.1387 10.5265 31.6735C10.331 31.7598 10.1355 31.8461 9.93413 31.935C9.79117 32.0104 9.64822 32.0859 9.50092 32.1636C9.07841 32.2306 9.07841 32.2306 8.51283 31.9402C8.30638 31.7967 8.10281 31.6501 7.90179 31.5009C7.79571 31.4254 7.68962 31.3498 7.58031 31.272C6.56018 30.5372 5.57557 29.7696 4.7998 28.8318C4.7998 28.7343 4.7998 28.6368 4.7998 28.5363C7.39054 27.6746 9.95763 26.8376 12.6724 26.3197C12.843 26.2865 12.843 26.2865 13.017 26.2525C14.3417 25.9993 15.6662 25.84 17.0152 25.7298C17.1695 25.7172 17.3237 25.7046 17.4826 25.6915C19.6686 25.5203 21.8621 25.4362 24.0541 25.3442C28.9254 25.1372 34.6942 24.8695 38.3702 21.7186C38.6012 21.4873 38.8174 21.245 39.0287 21Z" fill="#1587A3"/>
<path d="M17.7585 1.35685C17.9475 1.42454 18.1366 1.49224 18.3314 1.56198C18.892 1.76464 19.4507 1.97082 20.0087 2.17881C20.1535 2.2324 20.2983 2.286 20.4474 2.34122C24.016 3.68165 27.3914 5.52352 30.5384 7.49843C30.7775 7.64629 31.0168 7.79405 31.2562 7.94173C32.8316 8.91862 34.3782 9.92674 35.9103 10.9546C36.5298 11.3695 37.1462 11.7824 37.7967 12.16C37.9655 12.2583 38.1343 12.3566 38.3082 12.4579C38.4474 12.5343 38.5867 12.6106 38.7301 12.6893C39.1597 13.0854 39.1298 13.4714 39.1998 14.0002C37.2928 13.3028 35.4598 12.524 33.6378 11.6729C33.3812 11.554 33.1247 11.4353 32.868 11.3166C31.691 10.7711 30.5204 10.218 29.3608 9.64488C25.703 7.84348 21.7879 6.42569 17.8009 5.28192C17.561 5.21206 17.561 5.21206 17.3162 5.14079C15.1269 4.50924 12.9245 4.03793 10.6615 3.64945C10.4681 3.61577 10.2747 3.58209 10.0755 3.54739C9.90296 3.51837 9.73038 3.48936 9.55257 3.45947C9.13947 3.36095 9.13947 3.36095 8.7998 3.06541C10.3289 2.18147 11.8274 1.53736 13.5551 0.996668C13.8076 0.911522 13.8076 0.911522 14.0653 0.824657C15.4548 0.487327 16.4817 0.893141 17.7585 1.35685Z" fill="#1587A3"/>
<path d="M37.4334 25.2002C37.4884 25.2963 37.5434 25.3923 37.6001 25.4913C37.4343 25.8327 37.2595 26.1485 37.0584 26.4738C36.9984 26.571 36.9385 26.6681 36.8767 26.7682C35.2877 29.2557 32.9691 31.2091 30.2668 32.7692C30.1207 32.8547 29.9746 32.9403 29.8241 33.0284C27.4223 34.3632 24.5879 34.9602 21.7629 34.9872C21.6395 34.9886 21.5162 34.99 21.3891 34.9915C20.9942 34.995 20.5992 34.9969 20.2043 34.998C20.0702 34.9985 19.9361 34.999 19.798 34.9995C15.1899 35.0048 15.1899 35.0048 13.6001 34.0792C16.5868 32.7434 19.6355 32.1348 22.9155 31.6123C28.5952 30.7052 33.6201 29.1673 37.4334 25.2002Z" fill="#1587A3"/>
<path d="M20.7998 0.0275964C24.8534 -0.215863 29.1904 1.17365 32.2526 3.32188C34.9826 5.31298 36.8322 7.82672 38.3998 10.5C37.7058 10.5 37.5887 10.3378 37.0887 9.95456C36.931 9.83494 36.7734 9.71532 36.6109 9.59207C36.5264 9.52706 36.4418 9.46205 36.3547 9.39506C36.0822 9.18598 35.808 8.97861 35.5331 8.77164C33.9739 7.59718 33.9739 7.59718 33.2436 7.03477C32.0343 6.10821 30.773 5.25616 29.4561 4.43378C29.1711 4.2555 28.8878 4.07535 28.6047 3.89509C26.269 2.42728 23.5799 1.01711 20.7998 0.173047C20.7998 0.125048 20.7998 0.0770495 20.7998 0.0275964Z" fill="#1587A3"/>
<path d="M37.4502 25.2002C37.4997 25.2842 37.5492 25.3682 37.6002 25.4547C37.4311 25.7755 37.2536 26.0775 37.0564 26.3854C37.0048 26.47 36.9532 26.5546 36.9 26.6417C36.5562 27.1859 36.1894 27.5853 35.6502 28.0002C35.6502 27.8322 35.6502 27.6642 35.6502 27.4911C35.5512 27.4911 35.4522 27.4911 35.3502 27.4911C35.3007 27.3651 35.2512 27.2391 35.2002 27.1093C35.3119 27.0305 35.3119 27.0305 35.4258 26.9502C36.1724 26.4117 36.8241 25.8393 37.4502 25.2002Z" fill="#1587A3"/>
<path d="M34.3999 17.5C36.2479 17.5 38.0959 17.5 39.9999 17.5C39.9999 17.6723 39.9999 17.8446 39.9999 18.0222C39.4046 18.1617 38.9574 18.2154 38.3029 18.1962C38.6987 18.0913 39.066 18.0078 39.4908 17.9352C39.5468 17.849 39.6028 17.7628 39.6605 17.6741C39.4667 17.6747 39.4667 17.6747 39.269 17.6754C38.6818 17.6773 38.0946 17.6784 37.5075 17.6795C37.3042 17.6802 37.1008 17.681 36.8913 17.6817C36.695 17.682 36.4987 17.6823 36.2964 17.6826C36.116 17.683 35.9356 17.6835 35.7497 17.6839C35.28 17.6747 34.8567 17.6418 34.3999 17.587C34.3999 17.5583 34.3999 17.5296 34.3999 17.5Z" fill="#1587A3"/>
<path d="M39.0152 21C39.0761 21.1155 39.137 21.231 39.1998 21.35C38.8519 22.3007 38.2402 23.0606 37.5383 23.8C37.5383 23.6267 37.5383 23.4535 37.5383 23.275C37.4164 23.275 37.2946 23.275 37.169 23.275C37.0472 23.2172 36.9253 23.1595 36.7998 23.1C36.9288 22.9924 37.0578 22.8848 37.1907 22.7739C37.4427 22.5618 37.4427 22.5618 37.6998 22.3453C37.8669 22.2052 38.0339 22.0651 38.2061 21.9208C38.6704 21.5323 38.6704 21.5323 39.0152 21Z" fill="#1587A3"/>
<path d="M4.47292 6.2998C5.82292 6.4153 5.82292 6.4153 7.2002 6.53314C7.2002 6.57164 7.2002 6.61014 7.2002 6.6498C7.03801 6.64304 6.87582 6.63627 6.70872 6.6293C6.49591 6.62403 6.28309 6.61877 6.06383 6.61335C5.74743 6.60319 5.74743 6.60319 5.42463 6.59284C4.80118 6.6127 4.80118 6.6127 4.41895 6.94375C4.26566 7.087 4.26566 7.087 4.10929 7.23314C3.98929 7.23314 3.86929 7.23314 3.74565 7.23314C3.62565 7.38714 3.50565 7.54114 3.38201 7.6998C3.32201 7.6228 3.26201 7.5458 3.2002 7.46647C3.8302 6.88897 3.8302 6.88897 4.47292 6.2998Z" fill="#1587A3"/>
<path d="M37.4857 25.2002C37.5234 25.2868 37.5611 25.3734 37.6 25.4627C37.4612 25.8042 37.4612 25.8042 37.2643 26.201C37.1996 26.3326 37.1349 26.4642 37.0683 26.5999C37.0175 26.701 36.9667 26.8022 36.9143 26.9064C36.8766 26.7765 36.8389 26.6466 36.8 26.5127C36.536 26.7726 36.272 27.0324 36 27.3002C36.2335 26.7638 36.5183 26.3852 36.8714 25.9549C36.9304 25.8821 36.9893 25.8094 37.05 25.7344C37.1948 25.5558 37.3402 25.378 37.4857 25.2002Z" fill="#1587A3"/>
<path d="M36 9.1001C36.4788 9.24696 36.8464 9.41769 37.24 9.65202C37.3873 9.73906 37.3873 9.73906 37.5375 9.82786C37.6109 9.87201 37.6844 9.91615 37.76 9.96164C37.6544 9.74841 37.5488 9.53517 37.44 9.31548C37.8366 9.5525 38.0179 9.75311 38.19 10.0895C38.2503 10.2051 38.2503 10.2051 38.3119 10.323C38.341 10.3814 38.37 10.4399 38.4 10.5001C37.9004 10.3481 37.5206 10.1651 37.11 9.92125C37.0025 9.85823 36.8951 9.7952 36.7844 9.73027C36.4839 9.53344 36.2417 9.33017 36 9.1001Z" fill="#1587A3"/>
<path d="M39.9999 17.5C39.9999 17.6723 39.9999 17.8446 39.9999 18.0222C39.4387 18.1617 39.0169 18.2154 38.3999 18.1962C38.773 18.0913 39.1193 18.0078 39.5199 17.9352C39.5727 17.849 39.6255 17.7628 39.6799 17.6741C39.4159 17.6741 39.1519 17.6741 38.8799 17.6741C38.8799 17.6453 38.8799 17.6166 38.8799 17.587C39.6399 17.5 39.6399 17.5 39.9999 17.5Z" fill="#1587A3"/>
<path d="M37.4855 22.3999C37.7872 22.3999 38.0889 22.3999 38.3998 22.3999C38.3284 22.8749 38.3284 22.8749 38.1712 23.3999C37.9449 23.5319 37.7187 23.6639 37.4855 23.7999C37.5609 23.5359 37.6364 23.2719 37.7141 22.9999C37.4124 23.0659 37.1107 23.1319 36.7998 23.1999C37.0855 22.7999 37.0855 22.7999 37.4855 22.3999Z" fill="#1587A3"/>
<path d="M38.7428 13.2998C38.8559 13.3287 38.969 13.3576 39.0856 13.3873C39.1233 13.5894 39.161 13.7916 39.1999 13.9998C38.9359 13.9132 38.6719 13.8266 38.3999 13.7373C38.513 13.7084 38.6262 13.6796 38.7428 13.6498C38.8182 13.6787 38.8936 13.7076 38.9713 13.7373C38.8959 13.5929 38.8205 13.4486 38.7428 13.2998Z" fill="#1587A3"/>
<path d="M36.7998 9.1001C37.4608 9.38021 37.763 9.6173 38.0498 10.0149C38.1168 10.1059 38.1839 10.197 38.2529 10.2908C38.3014 10.3599 38.3499 10.4289 38.3998 10.5001C37.8831 10.4046 37.8831 10.4046 37.3331 10.2456C37.1498 10.0149 37.1498 10.0149 37.0665 9.73646C37.017 9.62096 36.9675 9.50546 36.9165 9.38646C36.878 9.29196 36.8395 9.19746 36.7998 9.1001Z" fill="#1587A3"/>
<path d="M47.032 17.56V16.28H54.712V17.56H47.032ZM53.8 11.8H55.16V23H53.8V11.8ZM46.28 11.8H47.64V23H46.28V11.8ZM57.7175 11.8H59.0775V23H57.7175V11.8ZM63.6394 17.48H65.1594L69.1594 23H67.4794L63.6394 17.48ZM61.6394 11.8H62.9994V23H61.6394V11.8ZM62.3914 13V11.8H64.6794C65.4047 11.8 66.05 11.9387 66.6154 12.216C67.1914 12.4827 67.6447 12.8667 67.9754 13.368C68.3167 13.8693 68.4874 14.4667 68.4874 15.16C68.4874 15.8427 68.3167 16.44 67.9754 16.952C67.6447 17.4533 67.1914 17.8427 66.6154 18.12C66.05 18.3867 65.4047 18.52 64.6794 18.52H62.3914V17.32H64.6794C65.1594 17.32 65.5807 17.2347 65.9434 17.064C66.3167 16.8933 66.6047 16.648 66.8074 16.328C67.0207 16.008 67.1274 15.6187 67.1274 15.16C67.1274 14.7013 67.0207 14.312 66.8074 13.992C66.6047 13.672 66.3167 13.4267 65.9434 13.256C65.5807 13.0853 65.1594 13 64.6794 13H62.3914ZM70.5925 11.8H71.9525V23H70.5925V11.8ZM82.9944 11.8H84.3544V23.56L75.8744 14.664V23H74.5144V11.24L82.9944 20.136V11.8ZM92.1206 18.6V17.32H97.3206C97.3206 18.0987 97.2033 18.84 96.9686 19.544C96.734 20.2373 96.3873 20.856 95.9286 21.4C95.47 21.944 94.9046 22.376 94.2326 22.696C93.5713 23.0053 92.814 23.16 91.9606 23.16C91.15 23.16 90.398 23.0213 89.7046 22.744C89.0113 22.456 88.4086 22.056 87.8966 21.544C87.3846 21.0213 86.9846 20.408 86.6966 19.704C86.4193 19 86.2806 18.232 86.2806 17.4C86.2806 16.568 86.4193 15.8 86.6966 15.096C86.9846 14.392 87.3846 13.784 87.8966 13.272C88.4086 12.7493 89.0113 12.3493 89.7046 12.072C90.398 11.784 91.15 11.64 91.9606 11.64C92.654 11.64 93.2886 11.7307 93.8646 11.912C94.4513 12.0933 94.974 12.36 95.4326 12.712C95.902 13.064 96.2966 13.5013 96.6166 14.024L95.6566 14.904C95.3046 14.3067 94.814 13.8427 94.1846 13.512C93.5553 13.1707 92.814 13 91.9606 13C91.1713 13 90.4566 13.1867 89.8166 13.56C89.1766 13.9333 88.6646 14.4507 88.2806 15.112C87.9073 15.7627 87.7206 16.5253 87.7206 17.4C87.7206 18.264 87.9073 19.0267 88.2806 19.688C88.6646 20.3493 89.1766 20.8667 89.8166 21.24C90.4566 21.6133 91.1713 21.8 91.9606 21.8C92.5153 21.8 93.0113 21.72 93.4486 21.56C93.8966 21.3893 94.2806 21.1547 94.6006 20.856C94.9206 20.5573 95.182 20.216 95.3846 19.832C95.598 19.448 95.7526 19.0373 95.8486 18.6H92.1206ZM104.124 11.8H105.484V23H104.124V11.8ZM116.526 11.8H117.886V23.56L109.406 14.664V23H108.046V11.24L116.526 20.136V11.8ZM121.252 17.4C121.252 18.264 121.444 19.0267 121.828 19.688C122.223 20.3493 122.735 20.8667 123.364 21.24C123.993 21.6133 124.676 21.8 125.412 21.8C125.945 21.8 126.431 21.7307 126.868 21.592C127.316 21.4533 127.721 21.2613 128.084 21.016C128.447 20.76 128.756 20.4667 129.012 20.136V21.928C128.543 22.344 128.031 22.6533 127.476 22.856C126.921 23.0587 126.233 23.16 125.412 23.16C124.633 23.16 123.903 23.0213 123.22 22.744C122.548 22.456 121.956 22.056 121.444 21.544C120.932 21.0213 120.532 20.408 120.244 19.704C119.956 19 119.812 18.232 119.812 17.4C119.812 16.568 119.956 15.8 120.244 15.096C120.532 14.392 120.932 13.784 121.444 13.272C121.956 12.7493 122.548 12.3493 123.22 12.072C123.903 11.784 124.633 11.64 125.412 11.64C126.233 11.64 126.921 11.7413 127.476 11.944C128.031 12.1467 128.543 12.456 129.012 12.872V14.664C128.756 14.3333 128.447 14.0453 128.084 13.8C127.721 13.544 127.316 13.3467 126.868 13.208C126.431 13.0693 125.945 13 125.412 13C124.676 13 123.993 13.1867 123.364 13.56C122.735 13.9333 122.223 14.4507 121.828 15.112C121.444 15.7627 121.252 16.5253 121.252 17.4ZM131.411 22.36C131.411 22.1147 131.496 21.9067 131.667 21.736C131.848 21.5653 132.056 21.48 132.291 21.48C132.536 21.48 132.744 21.5653 132.915 21.736C133.085 21.9067 133.171 22.1147 133.171 22.36C133.171 22.5947 133.085 22.8027 132.915 22.984C132.744 23.1547 132.536 23.24 132.291 23.24C132.056 23.24 131.848 23.1547 131.667 22.984C131.496 22.8027 131.411 22.5947 131.411 22.36Z" fill="#1587A3"/>
</svg>
